<svg width="40" height="40" viewBox="0 0 40 40" fill="none" xmlns="http://www.w3.org/2000/svg">
<rect x="1" y="1" width="38" height="38" rx="4" fill="white" stroke="#FFB800" stroke-width="2"/>
<path d="M32.0181 8.77514L31.9904 8.7499C31.4611 8.26634 30.7748 8 30.0582 8C29.2547 8 28.4834 8.34011 27.9417 8.93303L17.7002 20.1454C17.6069 20.2476 17.5361 20.3682 17.4923 20.4994L16.288 24.1096C16.1488 24.527 16.2187 24.9886 16.4749 25.3443C16.7332 25.7028 17.1494 25.9169 17.5881 25.9169H17.5882C17.778 25.9169 17.9635 25.8778 18.1395 25.8008L21.6262 24.2755C21.753 24.22 21.8667 24.1386 21.96 24.0364L32.2016 12.8241C33.2673 11.6574 33.1851 9.84122 32.0181 8.77514ZM18.5953 23.4427L19.302 21.3243L19.3616 21.259L20.7009 22.4823L20.6413 22.5476L18.5953 23.4427ZM30.7414 11.4903L22.0348 21.0221L20.6955 19.7988L29.402 10.2669C29.5723 10.0805 29.8053 9.97775 30.0582 9.97775C30.2801 9.97775 30.4925 10.0603 30.657 10.2105L30.6846 10.2357C31.0461 10.5659 31.0716 11.1287 30.7414 11.4903Z" fill="#FFB800"/>
<path d="M30.0313 17.1231C29.4852 17.1231 29.0424 17.5659 29.0424 18.112V26.5074C29.0424 27.894 27.9143 29.0222 26.5276 29.0222H14.5425C13.1558 29.0222 12.0277 27.894 12.0277 26.5074V14.6196C12.0277 13.233 13.1558 12.1048 14.5425 12.1048H23.2174C23.7635 12.1048 24.2062 11.6621 24.2062 11.1159C24.2062 10.5698 23.7635 10.1271 23.2174 10.1271H14.5425C12.0653 10.1271 10.0499 12.1425 10.0499 14.6196V26.5073C10.0499 28.9845 12.0653 30.9999 14.5425 30.9999H26.5275C29.0047 30.9999 31.0201 28.9845 31.0201 26.5073V18.112C31.0202 17.5659 30.5774 17.1231 30.0313 17.1231Z" fill="#FFB800"/>
</svg>
