<svg width="221" height="221" viewBox="0 0 221 221" fill="none" xmlns="http://www.w3.org/2000/svg">
<g clip-path="url(#clip0)">
<path d="M90.5127 181.114C109.148 181.114 126.363 175.434 140.738 165.851L192.739 217.851C196.822 221.933 203.567 221.933 207.824 217.851L217.94 207.735C222.022 203.653 222.022 196.909 217.94 192.65L165.762 140.827C175.344 126.451 181.025 109.236 181.025 90.601C181.025 40.7303 140.383 0.0883331 90.5127 0.0883331C40.642 0.0883331 0 40.7303 0 90.601C0 140.47 40.4645 181.114 90.5127 181.114ZM90.5127 35.5835C120.861 35.5835 145.53 60.2526 145.53 90.601C145.53 120.949 120.861 145.619 90.5127 145.619C60.1643 145.619 35.4952 120.949 35.4952 90.601C35.4952 60.2526 60.1643 35.5835 90.5127 35.5835Z" fill="#A1EBFC"/>
</g>
<defs>
<clipPath id="clip0">
<rect width="221" height="221" fill="white"/>
</clipPath>
</defs>
</svg>
