<svg width="40" height="40" viewBox="0 0 40 40" fill="none" xmlns="http://www.w3.org/2000/svg">
<rect x="1" y="1" width="38" height="38" rx="4" fill="white" stroke="#02CD0A" stroke-width="2"/>
<path d="M20.0002 20.8336C20.4968 20.8336 20.9267 20.6525 21.2893 20.2894C21.652 19.9267 21.8338 19.4968 21.8338 19.0004V9.83346C21.8338 9.33681 21.6522 8.90717 21.2893 8.54452C20.9268 8.18145 20.4968 8 20.0002 8C19.5036 8 19.0739 8.18166 18.7111 8.54452C18.3482 8.90717 18.1667 9.33701 18.1667 9.83346V19.0004C18.1667 19.4968 18.3482 19.9267 18.7111 20.2894C19.0739 20.6525 19.5037 20.8336 20.0002 20.8336Z" fill="#02CD0A"/>
<path d="M29.8476 15.9208C29.0787 14.3835 27.9975 13.0944 26.6034 12.0537C26.2024 11.7481 25.7488 11.6287 25.2428 11.6955C24.7366 11.7624 24.3356 12.0011 24.0396 12.4116C23.734 12.8125 23.6173 13.2637 23.6887 13.765C23.7601 14.2666 23.9967 14.6699 24.3977 14.9755C25.3331 15.682 26.0569 16.5463 26.5675 17.568C27.0784 18.5896 27.3335 19.6783 27.3335 20.8334C27.3335 21.8268 27.1402 22.7743 26.7535 23.6768C26.367 24.5792 25.844 25.3596 25.1851 26.0186C24.5261 26.6773 23.7459 27.2001 22.8434 27.5869C21.941 27.9736 20.9933 28.1673 20.0002 28.1673C19.0073 28.1673 18.0596 27.9736 17.1572 27.5869C16.2547 27.2001 15.4742 26.6773 14.8153 26.0186C14.1566 25.3596 13.6338 24.5792 13.247 23.6768C12.8603 22.7743 12.6669 21.8268 12.6669 20.8334C12.6669 19.6783 12.9224 18.5898 13.4332 17.568C13.944 16.5464 14.6673 15.6822 15.6031 14.9755C16.0041 14.6697 16.2403 14.2664 16.3121 13.765C16.3837 13.2639 16.2668 12.8125 15.9612 12.4116C15.6651 12.0011 15.2666 11.7623 14.7652 11.6955C14.2639 11.6287 13.8078 11.7481 13.3973 12.0537C12.003 13.0944 10.9218 14.3835 10.153 15.9208C9.38423 17.4582 9 19.0957 9 20.8335C9 22.3233 9.29127 23.7459 9.87366 25.1018C10.4563 26.4577 11.2391 27.6272 12.2228 28.6109C13.2062 29.5943 14.3759 30.3776 15.7319 30.9595C17.0879 31.5422 18.5106 31.8337 20.0002 31.8337C21.4898 31.8337 22.9125 31.5422 24.2685 30.9595C25.6245 30.3774 26.7942 29.5943 27.7778 28.6109C28.7611 27.6275 29.544 26.4577 30.1265 25.1018C30.709 23.7459 31 22.323 31 20.8335C31 19.0957 30.6163 17.4581 29.8476 15.9208Z" fill="#02CD0A"/>
</svg>
