<svg width="40" height="40" viewBox="0 0 40 40" fill="none" xmlns="http://www.w3.org/2000/svg">
<rect width="40" height="40" rx="5" fill="#CD0202"/>
<g clip-path="url(#clip0)">
<path d="M31.2742 11.482L30.6339 9.56267C30.3901 8.83165 29.7084 8.34047 28.938 8.34047H23.5565V6.58837C23.5565 5.71265 22.8445 5 21.969 5H17.0408C16.1655 5 15.4533 5.71265 15.4533 6.58837V8.34047H10.072C9.3014 8.34047 8.61972 8.83165 8.3759 9.56267L7.7356 11.482C7.58979 11.919 7.66369 12.4029 7.93295 12.7766C8.20222 13.1503 8.63786 13.3735 9.09851 13.3735H9.7678L11.2409 31.5895C11.3504 32.9411 12.4974 34 13.8526 34H25.4561C26.8111 34 27.9583 32.9411 28.0676 31.5892L29.5407 13.3735H29.9113C30.3719 13.3735 30.8076 13.1503 31.0768 12.7768C31.3461 12.4031 31.42 11.919 31.2742 11.482V11.482ZM17.1525 6.69922H21.8573V8.34047H17.1525V6.69922ZM26.3739 31.4523C26.3354 31.9282 25.9323 32.3008 25.4561 32.3008H13.8526C13.3764 32.3008 12.9733 31.9282 12.9348 31.4523L11.4726 13.3735H27.8359L26.3739 31.4523ZM9.46291 11.6743L9.98795 10.1003C9.99989 10.064 10.0337 10.0397 10.072 10.0397H28.938C28.9763 10.0397 29.0099 10.064 29.0221 10.1003L29.5471 11.6743H9.46291Z" fill="white"/>
<path d="M23.6638 31.3921C23.6789 31.393 23.6937 31.3932 23.7087 31.3932C24.1577 31.3932 24.5329 31.0414 24.5563 30.5879L25.3542 15.2723C25.3785 14.8037 25.0183 14.4039 24.5499 14.3796C24.0802 14.3546 23.6817 14.7152 23.6572 15.1838L22.8596 30.4994C22.8352 30.968 23.1952 31.3678 23.6638 31.3921V31.3921Z" fill="white"/>
<path d="M14.491 30.5899C14.5158 31.0428 14.8906 31.3932 15.3386 31.3932C15.3541 31.3932 15.3701 31.3928 15.3858 31.3919C15.8542 31.3665 16.2132 30.966 16.1878 30.4974L15.3521 15.1818C15.3267 14.7132 14.9262 14.3541 14.4576 14.3798C13.9892 14.4052 13.6301 14.8057 13.6556 15.2743L14.491 30.5899Z" fill="white"/>
<path d="M19.5144 31.3932C19.9837 31.3932 20.364 31.0129 20.364 30.5436V15.2281C20.364 14.7588 19.9837 14.3784 19.5144 14.3784C19.0451 14.3784 18.6648 14.7588 18.6648 15.2281V30.5436C18.6648 31.0129 19.0451 31.3932 19.5144 31.3932Z" fill="white"/>
</g>
<defs>
<clipPath id="clip0">
<rect width="29" height="29" fill="white" transform="translate(5 5)"/>
</clipPath>
</defs>
</svg>
